# xmcd CD database file
#
# Track frame offsets:
#	150
#	27987
#	57757
#	80802
#	111345
#	136227
#	166167
#	194232
#	221590
#	258650
#	289215
#
# Disc length: 4188 seconds
#
# Revision: 0
# Processed by: cddbd v1.5PL3 Copyright (c) Steve Scherf et al.
# Submitted via: CDex 1.51
#
DISCID=ac105a0b
DTITLE=Mike Stern - These Times
DYEAR=2003
DGENRE=Jazz
TTITLE0=Chatter
TTITLE1=Silver Lining
TTITLE2=I Know You
TTITLE3=Mirage
TTITLE4=If Only
TTITLE5=Street Rhyme
TTITLE6=Avenue B
TTITLE7=Remember For Bob Berg
TTITLE8=Tjese Times
TTITLE9=What You Believe
TTITLE10=Last One Down
EXTD=YEAR: 2003
EXTT0=
EXTT1=
EXTT2=
EXTT3=
EXTT4=
EXTT5=
EXTT6=
EXTT7=
EXTT8=
EXTT9=
EXTT10=
PLAYORDER=
